<svg xmlns="http://www.w3.org/2000/svg" style="display: none;">
  <defs>
    <symbol id="send" width="24" height="24" viewBox="0 0 24 24">
      <path d="M2.01 21 23 12 2.01 3 2 10l15 2-15 2 .01 7Z"/>
    </symbol>
    <symbol id="arrow-right" width="24" height="24" viewBox="0 0 24 24">
      <path d="m14.2 4.8 6.5 6.5.71.7-.7.7-6.5 6.5-1.42-1.4 4.8-4.8H3v-2h14.59l-4.8-4.8 1.42-1.4Z"/>
    </symbol>
    <symbol id="chevron-right" width="24" height="24" viewBox="0 0 24 24">
      <path d="m13.59 12-5.8-5.8 1.42-1.4 6.5 6.5.7.7-.7.7-6.5 6.5-1.42-1.4 5.8-5.8Z"/>
    </symbol>
    <symbol id="github" width="24" height="24" viewBox="0 0 24 24">
      <path d="M12 2a10 10 0 0 0-3.16 19.5c.5.08.66-.23.66-.5v-1.69c-2.77.6-3.36-1.34-3.36-1.34-.46-1.16-1.11-1.47-1.11-1.47-.91-.62.07-.6.07-.6 1 .07 1.53 1.03 1.53 1.03.87 1.52 2.34 1.07 2.91.83.09-.65.35-1.09.63-1.34-2.22-.25-4.55-1.11-4.55-4.92 0-1.11.38-2 1.03-2.71-.1-.25-.45-1.29.1-2.64 0 0 .84-.27 2.75 1.02a9.42 9.42 0 0 1 5 0c1.91-1.29 2.75-1.02 2.75-1.02.55 1.35.2 2.39.1 2.64.65.71 1.03 1.6 1.03 2.71 0 3.82-2.34 4.66-4.57 4.91.36.31.69.92.69 1.85V21c0 .27.16.59.67.5a10.03 10.03 0 0 0 3.9-16.57A10 10 0 0 0 12 2Z"/>
    </symbol>
    <symbol id="menu" width="24" height="24" viewBox="0 0 24 24">
      <path d="M22 6H2V4h20v2ZM2 13h16v-2H2v2Zm0 7h20v-2H2v2Z"/>
    </symbol>
    <symbol id="instagram" width="24" height="24" viewBox="0 0 24 24">
      <path d="M8 0C5.829 0 5.556.01 4.703.048 3.85.088 3.269.222 2.76.42a3.9 3.9 0 0 0-1.417.923A3.9 3.9 0 0 0 .42 2.76C.222 3.268.087 3.85.048 4.7.01 5.555 0 5.827 0 8.001c0 2.172.01 2.444.048 3.297.04.852.174 1.433.372 1.942.205.526.478.972.923 1.417.444.445.89.719 1.416.923.51.198 1.09.333 1.942.372C5.555 15.99 5.827 16 8 16s2.444-.01 3.298-.048c.851-.04 1.434-.174 1.943-.372a3.9 3.9 0 0 0 1.416-.923c.445-.445.718-.891.923-1.417.197-.509.332-1.09.372-1.942C15.99 10.445 16 10.173 16 8s-.01-2.445-.048-3.299c-.04-.851-.175-1.433-.372-1.941a3.9 3.9 0 0 0-.923-1.417A3.9 3.9 0 0 0 13.24.42c-.51-.198-1.092-.333-1.943-.372C10.443.01 10.172 0 7.998 0zm-.717 1.442h.718c2.136 0 2.389.007 3.232.046.78.035 1.204.166 1.486.275.373.145.64.319.92.599s.453.546.598.92c.11.281.24.705.275 1.485.039.843.047 1.096.047 3.231s-.008 2.389-.047 3.232c-.035.78-.166 1.203-.275 1.485a2.5 2.5 0 0 1-.599.919c-.28.28-.546.453-.92.598-.28.11-.704.24-1.485.276-.843.038-1.096.047-3.232.047s-2.39-.009-3.233-.047c-.78-.036-1.203-.166-1.485-.276a2.5 2.5 0 0 1-.92-.598 2.5 2.5 0 0 1-.6-.92c-.109-.281-.24-.705-.275-1.485-.038-.843-.046-1.096-.046-3.233s.008-2.388.046-3.231c.036-.78.166-1.204.276-1.486.145-.373.319-.64.599-.92s.546-.453.92-.598c.282-.11.705-.24 1.485-.276.738-.034 1.024-.044 2.515-.045zm4.988 1.328a.96.96 0 1 0 0 1.92.96.96 0 0 0 0-1.92m-4.27 1.122a4.109 4.109 0 1 0 0 8.217 4.109 4.109 0 0 0 0-8.217m0 1.441a2.667 2.667 0 1 1 0 5.334 2.667 2.667 0 0 1 0-5.334"/>
    </symbol>
    <symbol id="copy" width="24" height="24" viewBox="0 0 24 24">
      <path d="M3 2h12v4H7v10H3V2Zm6 20V8h12v11l-3 3H9Z"/>
    </symbol>
    <symbol id="linkedin" width="24" height="24" viewBox="0 0 24 24">
      <path d="M0 1.146C0 .513.526 0 1.175 0h13.65C15.474 0 16 .513 16 1.146v13.708c0 .633-.526 1.146-1.175 1.146H1.175C.526 16 0 15.487 0 14.854zm4.943 12.248V6.169H2.542v7.225zm-1.2-8.212c.837 0 1.358-.554 1.358-1.248-.015-.709-.52-1.248-1.342-1.248S2.4 3.226 2.4 3.934c0 .694.521 1.248 1.327 1.248zm4.908 8.212V9.359c0-.216.016-.432.08-.586.173-.431.568-.878 1.232-.878.869 0 1.216.662 1.216 1.634v3.865h2.401V9.25c0-2.22-1.184-3.252-2.764-3.252-1.274 0-1.845.7-2.165 1.193v.025h-.016l.016-.025V6.169h-2.4c.03.678 0 7.225 0 7.225z"/>
    </symbol>
    <symbol id="workana" width="24" height="24" viewBox="595 100 365 365">
      <path d="&#10;M660.037964,157.969696 &#10;&#9;C663.951416,157.296738 667.410217,156.370361 670.924622,156.045654 &#10;&#9;C701.925598,153.181488 731.800171,157.664688 760.431091,170.039185 &#10;&#9;C762.043518,170.736115 763.716553,171.299759 765.301025,172.052567 &#10;&#9;C766.891418,172.808182 768.406189,173.722977 770.570312,174.904419 &#10;&#9;C744.905640,191.505478 724.527283,212.830765 709.507629,239.057571 &#10;&#9;C694.687866,264.935303 686.623413,292.908752 684.854065,324.054504 &#10;&#9;C682.573547,322.367218 681.068420,321.167542 679.479736,320.091217 &#10;&#9;C656.903320,304.795776 639.040405,285.141876 626.135010,261.186615 &#10;&#9;C621.297729,252.207474 617.714966,242.548584 613.663147,233.155258 &#10;&#9;C613.185913,232.048889 612.945129,230.525742 613.299561,229.422180 &#10;&#9;C619.488953,210.151215 628.065369,192.053589 640.562012,176.024979 &#10;&#9;C644.888245,170.475937 649.679504,165.270218 654.519592,160.154907 &#10;&#9;C655.680359,158.928131 657.884705,158.688736 660.037964,157.969696 &#10;z"/>
      <path d="&#10;M931.004639,205.044250 &#10;&#9;C935.016541,216.242737 939.742859,226.863174 942.559265,237.967987 &#10;&#9;C943.536255,241.820312 940.155518,247.052444 938.116028,251.346008 &#10;&#9;C930.650879,267.062439 921.145874,281.376617 909.376648,294.328674 &#10;&#9;C899.753967,304.918335 888.787170,313.748535 877.337646,322.120300 &#10;&#9;C876.459045,322.762695 875.412842,323.175751 874.349731,323.746338 &#10;&#9;C869.710205,260.421509 841.586609,210.812607 788.150574,174.457153 &#10;&#9;C797.127625,170.847549 805.457947,166.925201 814.151062,164.131851 &#10;&#9;C828.505920,159.519241 843.164001,155.878845 858.409302,156.040817 &#10;&#9;C870.647705,156.170822 882.928894,156.177841 895.086914,157.334427 &#10;&#9;C898.261597,157.636398 901.570862,161.614319 903.912109,164.611771 &#10;&#9;C910.373291,172.884262 916.515320,181.421097 922.461914,190.074448 &#10;&#9;C925.640320,194.699554 928.154724,199.780975 931.004639,205.044250 &#10;z"/>
      <path d="&#10;M756.659058,359.298401 &#10;&#9;C772.438293,361.277802 787.729980,361.238770 803.189331,359.195068 &#10;&#9;C824.311279,356.402802 844.123047,349.857666 864.618958,340.264587 &#10;&#9;C863.638733,348.957245 863.358826,356.751709 861.790466,364.277649 &#10;&#9;C858.177246,381.615448 852.800720,398.485870 843.885071,413.868134 &#10;&#9;C838.162659,423.741211 831.605774,433.190918 824.684631,442.267487 &#10;&#9;C822.908142,444.597290 818.424377,445.287445 815.034851,445.889496 &#10;&#9;C799.858154,448.585327 784.575439,450.979462 769.119812,449.882172 &#10;&#9;C759.095642,449.170471 749.037659,447.845367 739.237183,445.692047 &#10;&#9;C736.012207,444.983490 733.066772,441.177002 730.813110,438.172333 &#10;&#9;C717.204102,420.028748 706.505310,400.372925 701.007019,378.185608 &#10;&#9;C699.501038,372.108612 698.127625,365.987152 697.013062,359.828217 &#10;&#9;C695.915649,353.764191 695.223877,347.626770 694.120667,339.882629 &#10;&#9;C714.796326,350.017639 734.826294,356.987854 756.659058,359.298401 &#10;z"/>
      <path d="&#10;M701.696289,407.244263 &#10;&#9;C707.753723,418.111206 713.549438,428.684387 719.929321,440.323334 &#10;&#9;C674.816895,423.442261 642.433594,394.084595 622.326538,352.238251 &#10;&#9;C606.705139,319.727203 602.133057,285.074036 609.341675,249.164108 &#10;&#9;C625.862427,285.311188 650.770935,313.772125 684.866333,334.663696 &#10;&#9;C685.531799,353.443298 688.750732,372.203796 695.029907,390.378906 &#10;&#9;C696.962463,395.972656 699.288635,401.430420 701.696289,407.244263 &#10;z"/>
      <path d="&#10;M758.282898,109.001129 &#10;&#9;C763.168213,108.666794 767.589539,108.019882 772.002930,108.069321 &#10;&#9;C779.755920,108.156174 787.630432,107.911713 795.225403,109.177528 &#10;&#9;C807.271484,111.185204 819.311951,113.697983 831.024475,117.125977 &#10;&#9;C848.919800,122.363510 864.921814,131.653549 880.011658,142.511688 &#10;&#9;C881.070312,143.273453 882.104126,144.069717 883.149536,144.849869 &#10;&#9;C882.973145,145.233246 882.796692,145.616623 882.620300,146.000000 &#10;&#9;C878.071594,146.000000 873.522827,145.991409 868.974121,146.001419 &#10;&#9;C843.019775,146.058563 818.231201,151.556015 794.554688,162.099350 &#10;&#9;C790.315369,163.987137 786.349548,166.507477 782.063354,168.261414 &#10;&#9;C780.553894,168.879074 778.180908,168.620071 776.682434,167.839447 &#10;&#9;C761.941101,160.160156 746.614197,154.066895 730.301331,150.768311 &#10;&#9;C722.368835,149.164322 714.335327,147.854385 706.283020,147.103851 &#10;&#9;C697.743408,146.307938 689.129150,146.191208 680.543396,146.070786 &#10;&#9;C677.165405,146.023392 673.776306,146.769180 669.752197,146.153259 &#10;&#9;C671.671448,144.477173 673.455444,142.607895 675.530884,141.155060 &#10;&#9;C695.075500,127.473999 716.293762,117.420555 739.638428,112.170296 &#10;&#9;C745.631775,110.822380 751.752869,110.042801 758.282898,109.001129 &#10;z"/>
      <path d="&#10;M871.000000,363.958862 &#10;&#9;C872.254272,353.807159 873.508423,344.097443 874.791260,334.165527 &#10;&#9;C889.774109,325.598541 903.165222,314.164429 915.274536,301.188782 &#10;&#9;C927.257629,288.348358 936.838379,273.787415 945.054993,258.193176 &#10;&#9;C950.712036,264.694611 946.689819,312.107819 938.990723,334.094238 &#10;&#9;C920.229980,387.669861 876.994568,425.121460 840.546753,436.545715 &#10;&#9;C855.945862,414.426483 865.855652,390.404449 871.000000,363.958862 &#10;z"/>
    </symbol>
    <symbol id="arrow-left" width="24" height="24" viewBox="0 0 24 24">
      <path d="m9.8 19.2-6.5-6.5-.71-.7.7-.7 6.5-6.5 1.42 1.4L6.4 11H21v2H6.41l4.8 4.8-1.42 1.4Z"/>
    </symbol>
    <symbol id="check" width="24" height="24" viewBox="0 0 24 24">
      <path d="m20.2 7.2-10 10-.7.71-.7-.7-5-5 1.4-1.42 4.3 4.3 9.3-9.3 1.4 1.42Z"/>
    </symbol>
    <symbol id="link" width="24" height="24" viewBox="0 0 24 24">
      <path d="M9 4 8 5v2h2V6h10v7H10v-2H8v3l1 1h12l1-1V5l-1-1H9Zm2 4H3L2 9v9l1 1h12l1-1v-2h-2v1H4v-7h10v2h2V9l-1-1h-4Z"/>
    </symbol>
    <symbol id="close" width="24" height="24" viewBox="0 0 24 24">
      <path d="M19 6.41 17.59 5 12 10.59 6.41 5 5 6.41 10.59 12 5 17.59 6.41 19 12 13.41 17.59 19 19 17.59 13.41 12 19 6.41Z"/>
    </symbol>
    <symbol id="pause" width="24" height="24" viewBox="0 0 24 24">
      <path d="M6 19h4V5H6v14Zm8-14v14h4V5h-4Z"/>
    </symbol>
    <symbol id="play" width="24" height="24" viewBox="0 0 24 24">
      <path d="M8 5v14l11-7L8 5Z"/>
    </symbol>
    <symbol id="bluesky" width="24" height="24" viewBox="0 0 24 24">
      <path d="M6.34 3.78C8.63 5.51 11.09 9.01 12 10.9v4.96c0-.1-.04.02-.13.27-.47 1.4-2.32 6.83-6.54 2.49-2.22-2.29-1.19-4.58 2.86-5.27-2.32.4-4.92-.26-5.63-2.82C2.35 9.8 2 5.25 2 4.64c0-3.07 2.68-2.1 4.34-.86Zm11.32 0C15.37 5.51 12.91 9.01 12 10.9v4.96c0-.1.04.02.13.27.47 1.4 2.32 6.83 6.54 2.49 2.22-2.29 1.19-4.58-2.86-5.27 2.32.4 4.92-.26 5.63-2.82.21-.73.56-5.27.56-5.88 0-3.07-2.68-2.1-4.34-.86Z"/>
    </symbol>
  </defs>
</svg>
